<?xml version="1.0" encoding="UTF-8"?>
<svg id="Livello_1" data-name="Livello 1" xmlns="http://www.w3.org/2000/svg" viewBox="0 0 291.98 304.15">
  <defs>
    <style>
      .cls-1 {
        fill: #29235c;
      }

      .cls-2 {
        fill: #ffec55;
      }

      .cls-3 {
        fill: #d4cce7;
      }

      .cls-4 {
        fill: #f6a000;
      }

      .cls-5 {
        fill: #861875;
      }

      .cls-6 {
        fill: #af94c1;
      }
    </style>
  </defs>
  <path class="cls-3" d="M85.52,0h0c-15.48,15.48-25.05,36.86-25.05,60.47,23.62,0,45,9.57,60.47,25.05,0-21.89,8.35-43.77,25.05-60.47C129.29,8.35,107.41,0,85.52,0Z"/>
  <path class="cls-1" d="M85.52,120.94c-15.48-15.48-25.05-36.86-25.05-60.47-23.62,0-45,9.57-60.47,25.05,0,21.89,8.35,43.77,25.05,60.47,16.7-16.7,38.59-25.05,60.47-25.05Z"/>
  <path class="cls-5" d="M145.99,145.99c-16.7-16.7-25.05-38.59-25.05-60.47-15.48-15.48-36.86-25.05-60.47-25.05,0,23.62,9.57,45,25.05,60.47,21.89,0,43.77,8.35,60.47,25.05h0Z"/>
  <path class="cls-3" d="M85.52,171.04c-21.89,0-43.77-8.35-60.47-25.05C8.35,162.69,0,184.58,0,206.46c15.48,15.48,36.86,25.05,60.47,25.05,0-23.62,9.57-45,25.05-60.47Z"/>
  <path class="cls-6" d="M145.99,145.99c-23.62,0-45-9.57-60.47-25.05-21.89,0-43.77,8.35-60.47,25.05,16.7,16.7,38.59,25.05,60.47,25.05,15.48-15.48,36.86-25.05,60.47-25.05h0Z"/>
  <path class="cls-4" d="M145.99,145.99c-16.7-16.7-38.58-25.05-60.47-25.05,15.48,15.48,36.86,25.05,60.47,25.05h0Z"/>
  <path class="cls-1" d="M120.94,206.46s0,0,0,0c-15.48,15.48-36.86,25.05-60.47,25.05,0,23.62,9.57,45,25.05,60.47h0l35.42-85.52Z"/>
  <path class="cls-5" d="M145.99,145.99h0c-16.7,16.7-38.58,25.05-60.47,25.05-15.48,15.48-25.05,36.86-25.05,60.47,23.62,0,45-9.57,60.47-25.05,0-21.89,8.35-43.77,25.05-60.47h0Z"/>
  <path class="cls-4" d="M145.99,145.99c-23.62,0-45,9.57-60.47,25.05,21.89,0,43.77-8.35,60.47-25.05h0Z"/>
  <path class="cls-3" d="M171.04,206.46s0,0,0,0l35.42,85.52h0c15.48-15.48,25.05-36.86,25.05-60.47-23.62,0-45-9.57-60.47-25.05Z"/>
  <path class="cls-4" d="M145.99,145.99c-16.7,16.7-25.05,38.59-25.05,60.47h0l25.05-60.47Z"/>
  <path class="cls-1" d="M206.46,171.04c15.48,15.48,25.05,36.86,25.05,60.47,23.62,0,45-9.57,60.47-25.05,0-21.89-8.35-43.77-25.05-60.47-16.7,16.7-38.59,25.05-60.47,25.05Z"/>
  <path class="cls-5" d="M171.04,206.46c15.48,15.48,36.86,25.05,60.47,25.05,0-23.62-9.57-45-25.05-60.47-21.89,0-43.77-8.35-60.47-25.05,16.7,16.7,25.05,38.59,25.05,60.47Z"/>
  <path class="cls-4" d="M145.99,145.99l25.05,60.47h0c0-21.89-8.35-43.77-25.05-60.47h0Z"/>
  <path class="cls-1" d="M206.46,0h0c-21.89,0-43.77,8.35-60.47,25.05,16.7,16.7,25.05,38.59,25.05,60.47,15.48-15.48,36.86-25.05,60.47-25.05C231.51,36.86,221.94,15.48,206.46,0Z"/>
  <path class="cls-6" d="M145.99,25.05c-16.7,16.7-25.05,38.59-25.05,60.47,15.48,15.48,25.05,36.86,25.05,60.47,0-23.62,9.57-45,25.05-60.47,0-21.89-8.35-43.77-25.05-60.47Z"/>
  <path class="cls-4" d="M120.94,85.52c0,21.89,8.35,43.77,25.05,60.47,0-23.62-9.57-45-25.05-60.47Z"/>
  <path class="cls-3" d="M206.46,120.94c21.89,0,43.77,8.35,60.47,25.05,16.7-16.7,25.05-38.59,25.05-60.47-15.48-15.48-36.86-25.05-60.47-25.05,0,23.62-9.57,45-25.05,60.47Z"/>
  <path class="cls-5" d="M145.99,145.99c16.7-16.7,38.59-25.05,60.47-25.05,15.48-15.48,25.05-36.86,25.05-60.47-23.62,0-45,9.57-60.47,25.05,0,21.89-8.35,43.77-25.05,60.47Z"/>
  <path class="cls-4" d="M145.99,145.99h0c16.7-16.7,25.05-38.59,25.05-60.47-15.48,15.48-25.05,36.86-25.05,60.47Z"/>
  <path class="cls-6" d="M206.46,120.94c-15.48,15.48-36.86,25.05-60.47,25.05,23.62,0,45,9.57,60.47,25.05,21.89,0,43.77-8.35,60.47-25.05-16.7-16.7-38.59-25.05-60.47-25.05Z"/>
  <path class="cls-4" d="M206.46,120.94c-21.89,0-43.77,8.35-60.47,25.05,23.62,0,45-9.57,60.47-25.05Z"/>
  <path class="cls-4" d="M206.46,171.04c-15.48-15.48-36.86-25.05-60.47-25.05,16.7,16.7,38.59,25.05,60.47,25.05Z"/>
  <path class="cls-2" d="M201.91,280.99l-13.12-31.67-42.8-103.32-42.8,103.32-13.12,31.67-4.61,11.12c9.91,4.1,20.17,6.03,30.26,6.03,9.32,3.87,19.54,6.01,30.26,6.01s20.94-2.14,30.26-6.01c10.09,0,20.36-1.93,30.26-6.03l-4.61-11.12Z"/>
</svg>