<svg version="1.2" xmlns="http://www.w3.org/2000/svg" viewBox="0 0 682.86 377.89" width="683" height="378">
	<style>
		.s0 { fill: none;stroke: #e30613;stroke-miterlimit:10;stroke-width: 1.4 } 
		.s1 { fill: #d4cce7 } 
		.s2 { fill: #29235c } 
		.s3 { fill: #861875 } 
		.s4 { fill: #af94c1 } 
		.s5 { fill: #f6a000 } 
		.s6 { fill: #ffec55 } 
		.s7 { fill: #ffffff } 
	</style>
	<g>
		<path class="s0" d="m0.7 83.59z"/>
		<path class="s1" d="m0.7 83.59c0 21.21 8.09 42.43 24.28 58.61 16.18-16.18 37.4-24.28 58.61-24.28-15-15-24.28-35.72-24.28-58.61-22.89 0-43.61 9.28-58.61 24.28z"/>
		<path class="s2" d="m83.59 166.47c-21.21 0-42.43-8.09-58.61-24.28-16.19 16.19-24.28 37.4-24.28 58.62 15 15 35.72 24.28 58.61 24.28 0-22.89 9.28-43.61 24.28-58.61z"/>
		<path class="s3" d="m142.2 142.2c-22.89 0-43.61-9.28-58.61-24.28-21.21 0-42.42 8.09-58.61 24.28 16.18 16.18 37.4 24.28 58.61 24.28 15-15 35.72-24.28 58.61-24.28z"/>
		<path class="s1" d="m117.92 200.81c-15 15-35.72 24.28-58.61 24.28 0 22.89 9.28 43.61 24.28 58.61 21.21 0 42.42-8.09 58.61-24.28-16.18-16.18-24.28-37.4-24.28-58.61z"/>
		<path class="s4" d="m142.2 142.2c-16.18 16.18-37.4 24.28-58.61 24.28-15 15-24.28 35.72-24.28 58.61 22.89 0 43.61-9.28 58.61-24.28 0-21.21 8.09-42.42 24.28-58.61z"/>
		<path class="s5" d="m142.2 142.2c-22.89 0-43.61 9.28-58.61 24.28 21.21 0 42.42-8.09 58.61-24.28z"/>
		<path class="s0" d="m200.81 283.69z"/>
		<path class="s0" d="m283.69 200.81z"/>
		<path class="s2" d="m166.47 200.81c0 21.21-8.09 42.42-24.28 58.61 16.18 16.18 37.4 24.28 58.61 24.28z"/>
		<path class="s3" d="m142.2 142.2c0 22.89-9.28 43.61-24.28 58.61 0 21.21 8.09 42.42 24.28 58.61 16.18-16.18 24.28-37.4 24.28-58.61-15-15-24.28-35.72-24.28-58.61z"/>
		<path class="s5" d="m142.2 142.2c-16.18 16.18-24.28 37.4-24.28 58.61 15-15 24.28-35.72 24.28-58.61z"/>
		<path class="s1" d="m200.81 166.47l82.89 34.33c0-21.21-8.09-42.43-24.28-58.61-16.18 16.18-37.4 24.28-58.61 24.28z"/>
		<path class="s0" d="m166.47 200.81z"/>
		<path class="s0" d="m200.81 166.47z"/>
		<path class="s5" d="m142.2 142.2c0 22.89 9.28 43.61 24.28 58.61z"/>
		<path class="s2" d="m200.81 117.92c21.21 0 42.42 8.09 58.61 24.28 16.18-16.18 24.28-37.4 24.28-58.61-15-15-35.72-24.28-58.61-24.28 0 22.89-9.28 43.61-24.28 58.61z"/>
		<path class="s3" d="m200.81 166.47c21.21 0 42.42-8.09 58.61-24.28-16.18-16.18-37.4-24.28-58.61-24.28-15 15-35.72 24.28-58.61 24.28 22.89 0 43.61 9.28 58.61 24.28z"/>
		<path class="s5" d="m142.2 142.2l58.61 24.28c-15-15-35.72-24.28-58.61-24.28z"/>
		<path class="s0" d="m83.59 0.7z"/>
		<path class="s2" d="m83.59 0.7c-15 15-24.28 35.72-24.28 58.61 22.89 0 43.61 9.28 58.61 24.28 0-21.21 8.09-42.42 24.28-58.61-16.19-16.19-37.4-24.28-58.61-24.28z"/>
		<path class="s4" d="m59.31 59.31c0 22.89 9.28 43.61 24.28 58.61 21.21 0 42.42 8.09 58.61 24.28-16.18-16.18-24.28-37.4-24.28-58.61-15-15-35.72-24.28-58.61-24.28z"/>
		<path class="s5" d="m83.59 117.92c15 15 35.72 24.28 58.61 24.28-16.18-16.18-37.4-24.28-58.61-24.28z"/>
		<path class="s1" d="m166.47 83.59c15-15 35.72-24.28 58.61-24.28 0-22.89-9.28-43.61-24.28-58.61-21.21 0-42.42 8.09-58.61 24.28 16.18 16.18 24.28 37.4 24.28 58.61z"/>
		<path class="s3" d="m142.2 142.2c0-22.89 9.28-43.61 24.28-58.61 0-21.21-8.09-42.43-24.28-58.61-16.18 16.18-24.28 37.4-24.28 58.61 15 15 24.28 35.72 24.28 58.61z"/>
		<path class="s5" d="m142.2 142.2c0-22.89-9.28-43.61-24.28-58.61 0 21.21 8.09 42.42 24.28 58.61z"/>
		<path class="s4" d="m166.47 83.59c0 21.21-8.09 42.42-24.28 58.61 16.18-16.18 37.4-24.28 58.61-24.28 15-15 24.28-35.72 24.28-58.61-22.89 0-43.61 9.28-58.61 24.28z"/>
		<path class="s5" d="m166.47 83.59c-15 15-24.28 35.72-24.28 58.61 16.18-16.18 24.28-37.4 24.28-58.61z"/>
		<path class="s5" d="m200.81 117.92c-21.21 0-42.42 8.09-58.61 24.28 22.89 0 43.61-9.28 58.61-24.28z"/>
		<path class="s6" d="m273.04 196.39l-30.7-12.72-100.14-41.48 41.48 100.14 12.72 30.7 4.47 10.78c9.6-3.98 17.96-9.69 24.87-16.61 9.04-3.74 17.51-9.27 24.86-16.62 7.35-7.35 12.88-15.82 16.62-24.86 6.92-6.92 12.63-15.27 16.61-24.87l-10.78-4.47z"/>
	</g>
	<g>
		<path class="s7" d="m247.62 352.49c0 16.34-17.45 23.74-36.33 23.74h-26.5c-2.76 0-4.31 0.33-11.59 0.33-0.77 0-0.77-0.77 0-0.77 8.83-0.11 10.71-1.44 10.71-16.68v-35.89c-7.4-4.42-12.8-10.6-12.8-16.67q0-7.29 6.29-7.62h26.39c18.11 0 29.38 4.2 29.38 15.9 0 7.29-8.83 12.92-21.42 14.13 16.89 1.99 35.89 7.62 35.89 23.52zm-63.71-30.47v-10.71c-0.33-8.61-2.65-11.48-6.51-11.48-3.43 0.33-5.3 2.43-5.3 6.73 0 5.63 4.96 11.26 11.81 15.46zm10.6-22.09c-0.33 1.33-0.99 4.2-0.99 13.47v13.14c3.53 1.1 7.07 1.88 10.49 1.99h0.22c15.24 0 17.89-4.31 17.89-13.8 0-11.27-7.84-14.8-20.21-14.8zm15.24 75.31c18.77 0 26.83-11.26 26.83-22.63 0-15.9-11.26-22.53-32.57-23.08-3.42-0.11-7.07-0.88-10.49-1.99v29.81c0 8.39 0.66 14.69 1.65 17.89z"/>
		<path class="s7" d="m264.05 376.23c-2.43 0-3.43 0.33-9.16 0.33-0.66 0-0.66-0.77 0-0.77 8.39-0.11 8.61-3.09 8.61-11.71v-54.99c0-5.85-1.44-9.83-8.4-9.27-0.55 0.11-0.55-0.55 0-0.66 4.31-1.21 12.37-4.2 16.34-6.29 0.22-0.22 0.66 0 0.66 0.44v70.78c0 8.61 0.22 11.59 8.61 11.71 0.66 0 0.66 0.77 0 0.77-5.74 0-6.74-0.33-9.16-0.33h-7.51z"/>
		<path class="s7" d="m287.23 350.39c0-18 14.8-31.58 32.9-31.58 15.79 0 27.17 13.36 27.17 28.49 0 17.67-13.25 30.59-32.47 30.59-14.68 0-27.6-12.37-27.6-27.5zm52.78 5.3c0-15.24-11.7-33.46-28.27-33.46-10.05 0-17.12 8.72-17.12 19.88 0 15.24 13.25 33.01 28.16 33.01 10.26 0 17.22-8.72 17.23-19.43z"/>
		<path class="s7" d="m400.28 361.77c0 9.61-9.83 15.46-23.85 15.46-7.17 0-18.99-4.64-22.08-10.27 7.07-9.28 7.28-9.83 9.82-15.46 0.56-1.1 1.55-0.55 1.11 0.33-1.88 3.75-2.76 5.63-4.08 7.62 1.21 9.83 6.4 16.78 15.24 16.78 7.62 0.55 16.01-3.42 16.01-10.16 0-4.41-2.98-10.05-9.27-12.26-6.96-2.43-10.27-3.31-14.47-5.3-7.07-3.31-11.04-7.95-11.04-15.24 0-8.72 11.48-13.8 18.99-13.8 7.51 0 17.12 2.98 22.97 9.28-5.41 5.63-8.06 10.49-9.94 14.57-0.34 0.77-1.22 0.33-0.89-0.44 0.66-1.66 1.55-3.31 2.65-5.19 1.65-11.71-5.74-17.23-15.02-17.23-6.52 0-11.27 4.09-11.27 10.16 0 3.64 1.44 7.17 6.96 9.83 3.64 1.77 7.73 3.2 11.92 4.64 9.83 3.31 16.24 7.95 16.24 16.67z"/>
		<path class="s7" d="m454.03 361.77c0 9.61-9.83 15.46-23.85 15.46-7.18 0-19-4.64-22.09-10.27 7.07-9.28 7.29-9.83 9.83-15.46 0.55-1.1 1.55-0.55 1.1 0.33-1.87 3.75-2.76 5.63-4.08 7.62 1.22 9.83 6.41 16.78 15.24 16.78 7.62 0.55 16.01-3.42 16.01-10.16 0-4.41-2.98-10.05-9.28-12.26-6.95-2.43-10.26-3.31-14.46-5.3-7.07-3.31-11.04-7.95-11.04-15.24 0-8.72 11.49-13.8 18.99-13.8 7.5 0 17.12 2.98 22.97 9.28-5.41 5.63-8.06 10.49-9.94 14.57-0.33 0.77-1.22 0.33-0.88-0.44 0.66-1.66 1.55-3.31 2.65-5.19 1.66-11.71-5.74-17.23-15.01-17.23-6.52 0-11.27 4.09-11.27 10.16 0 3.64 1.44 7.17 6.95 9.83 3.65 1.77 7.73 3.2 11.93 4.64 9.83 3.31 16.23 7.95 16.23 16.67z"/>
		<path class="s7" d="m461.19 350.39c0-18 14.8-31.58 32.91-31.58 15.79 0 27.16 13.36 27.16 28.49 0 17.67-13.25 30.59-32.46 30.59-14.68 0-27.61-12.37-27.61-27.5zm52.79 5.3c0-15.24-11.71-33.46-28.27-33.46-10.05 0-17.12 8.72-17.12 19.88 0 15.24 13.25 33.01 28.15 33.01 10.27 0 17.23-8.72 17.24-19.43z"/>
		<path class="s7" d="m632.54 376.57c-5.74 0-6.73-0.33-9.16-0.33h-7.62c-2.43 0-3.43 0.33-9.16 0.33-0.66 0-0.66-0.77 0-0.77 8.39-0.11 8.5-3.09 6.85-11.49l-3.65-18.77c-2.65-13.58-5.3-23.08-11.48-23.08-9.94 0-15.02 14.91-16.12 35.22l-0.11 6.41c-0.11 8.61 0 11.59 8.4 11.71 0.66 0 0.66 0.77 0 0.77-5.74 0-6.74-0.33-9.17-0.33h-7.17c-2.43 0-3.43 0.33-9.16 0.33-0.66 0-0.66-0.77 0-0.77 8.39-0.11 8.61-3.09 8.61-11.71v-14.13c0-15.68 0.22-27.61-9.72-27.61-9.38 0-17.67 14.8-20.43 46.38 0.34 5.08 1.99 6.96 8.61 6.96 0.66 0 0.66 0.77 0 0.77-5.74 0.11-6.73-0.22-9.16-0.22h-7.51c-2.43 0-3.42 0.33-9.16 0.33-0.66 0-0.66-0.77 0-0.77 8.39-0.11 8.61-3.09 8.61-11.71v-25.73c0-7.95-1.77-13.14-7.4-13.14-0.33-0.11-0.33-0.77 0-0.88 5.19-0.99 12.15-2.87 15.46-4.75q0.33-0.33 0.66 0l-0.11 18.88-1.77 31.14h0.77c2.98-38.42 14.03-50.24 24.73-50.24 8.95 0 15.68 4.42 15.24 26.94v0.22c2.1-15.35 8.06-27.17 18.44-27.17 11.15 0 14.46 9.5 17.45 24.73l3.86 20.21c1.66 8.39 1.99 11.38 10.38 11.49 0.66 0 0.66 0.77 0 0.77zm-89.33-12.48c0 0.99 0 1.88 0.11 2.65z"/>
		<path class="s7" d="m682.86 361.77c0 9.61-9.83 15.46-23.85 15.46-7.18 0-19-4.64-22.09-10.27 7.07-9.28 7.29-9.83 9.83-15.46 0.55-1.1 1.55-0.55 1.1 0.33-1.87 3.75-2.76 5.63-4.08 7.62 1.22 9.83 6.41 16.78 15.24 16.78 7.62 0.55 16.01-3.42 16.01-10.16 0-4.41-2.98-10.05-9.28-12.26-6.95-2.43-10.26-3.31-14.46-5.3-7.07-3.31-11.04-7.95-11.04-15.24 0-8.72 11.49-13.8 18.99-13.8 7.5 0 17.12 2.98 22.97 9.28-5.41 5.63-8.06 10.49-9.94 14.57-0.33 0.77-1.22 0.33-0.88-0.44 0.66-1.66 1.55-3.31 2.65-5.19 1.66-11.71-5.74-17.23-15.01-17.23-6.52 0-11.27 4.09-11.27 10.16 0 3.64 1.44 7.17 6.95 9.83 3.65 1.77 7.73 3.2 11.93 4.64 9.83 3.31 16.23 7.95 16.23 16.67z"/>
	</g>
	<g>
		<g>
			<path class="s7" d="m317.67 238.7c15.53 0 22.98 6.69 22.83 15.52-0.23 11.91-12.76 14.37-22.6 14.37-7.3 0-11.76 1.54-11.76 7.15v3.61c0 11.68 1.84 12.68 10.45 12.84 0.77 0 0.77 0.54 0 0.54-7.15 0-8.61-0.23-11.3-0.23h-5.07c-1.92 0-3 0.23-8.07 0.23-0.54 0-0.54-0.54 0-0.54 6.15-0.08 7.45-1 7.45-11.61v-29.98c0-10.61-1.3-11.53-7.45-11.61-0.54 0-0.54-0.54 0-0.54 5.07 0 6.15 0.23 8.07 0.23h17.45zm15.22 15.45c0-8.76-6.3-14.76-15.3-14.76h-10.84c-0.23 0.77-0.61 2.46-0.61 9.53v23.37c1.77-3.69 6.45-4.38 11.68-4.38 11.69 0 15.07-6.84 15.07-13.76z"/>
			<path class="s7" d="m392.05 292.74c-3.76 0-4.69-0.23-6.15-0.23h-5.99c-2.46 0-4.07 0.23-10.68 0.23-0.69 0-0.69-0.54 0-0.54 4.54-0.08 6.84-1 7.38-3.3-7.76-8.99-17.45-14.53-26.28-17.29 3.38 2.08 7.92 6.15 7.92 13.3 0 4-2.92 8.3-8.45 8.3-11.07 0-11.99-11.38-7.61-18.91l17.3-29.59-1.85-4.3c-0.08-0.15-0.15-0.23 0.08-0.31 2.08-0.69 4.46-1.69 5.38-3.46 0 0 0.15-0.08 0.23 0l18.76 44.27c3.54 8.38 5.38 11.22 9.99 11.3 0.39 0 0.39 0.54 0 0.54zm-15.29-4.85c0-1.69-0.61-4-1.92-7l-15.06-35.44-17.06 29.29c-4 6.92-3.31 17.76 7.07 17.76 5.15 0 7.76-4.15 7.76-7.53 0-9.3-8.92-13.83-10.46-14.29h-0.15c-0.54-0.15-0.39-0.77 0-0.69 9.38 2.15 21.98 8.68 29.82 17.91z"/>
			<path class="s7" d="m441.77 274.52c-4.08 11.76-11.38 18.68-23.29 18.68-10.99 0-20.75-6.76-20.75-19.52 0-11.53 7-25.21 18.37-34.28h-8.84c-4.3 0-14.91 5.15-15.99 10.68l-1.84 9.61c-0.08 0.39-0.77 0.31-0.69-0.15l4.61-23.44c0.08-0.23 0.23-0.15 0.38 0 1.69 1.84 4.54 2.61 9.53 2.61h22.37c4.99 0 7.84-0.77 9.53-2.61 0.15-0.15 0.31-0.23 0.38 0l4.61 23.44c0.08 0.46-0.61 0.54-0.69 0.15l-1.85-9.61c-1.08-5.53-11.68-10.68-15.99-10.68h-4.69c-11.91 10.53-13.37 22.91-13.37 34.21 0 11.3 5.61 18.29 15.99 18.29 10.38 0 17.3-5.61 21.6-17.68 0.23-0.54 0.85-0.39 0.62 0.3z"/>
			<path class="s7" d="m505.24 292.74c-5.07 0-6.15-0.23-8.07-0.23h-5.38c-1.92 0-3 0.23-8.07 0.23-0.54 0-0.54-0.54 0-0.54 6.15-0.08 7.45-1 7.45-11.61v-10.14c-0.85-4.69-8.61-4.84-16.75-4.69-6.61 0.15-13.45-0.46-15.6-5.84v20.68c0 10.61 1.31 11.53 7.46 11.61 0.54 0 0.54 0.54 0 0.54-5.07 0-6.15-0.23-8.07-0.23h-5.38c-1.92 0-3 0.23-8.07 0.23-0.54 0-0.54-0.54 0-0.54 6.15-0.08 7.45-1 7.45-11.61v-29.98c0-10.61-1.3-11.53-7.45-11.61-0.54 0-0.54-0.54 0-0.54 5.07 0 6.15 0.23 8.07 0.23h5.38c1.92 0 3-0.23 8.07-0.23 0.54 0 0.54 0.54 0 0.54-6.15 0.08-7.46 1-7.46 11.61v6.69c0.85 7.07 8.23 7.92 15.52 7.76 7.38-0.15 14.61-0.15 16.83 3.54v-17.99c0-10.61-1.3-11.53-7.45-11.61-0.54 0-0.54-0.54 0-0.54 5.07 0 6.15 0.23 8.07 0.23h5.38c1.92 0 3-0.23 8.07-0.23 0.54 0 0.54 0.54 0 0.54-6.15 0.08-7.45 1-7.45 11.61v29.98c0 10.61 1.3 11.53 7.45 11.61 0.54 0 0.54 0.54 0 0.54z"/>
		</g>
		<g>
			<path class="s7" d="m517.43 278.24c0-9.49 7.8-16.65 17.34-16.65 8.32 0 14.32 7.04 14.32 15.02 0 9.31-6.99 16.12-17.11 16.12-7.74 0-14.55-6.52-14.55-14.49zm27.82 2.8c0-8.03-6.17-17.64-14.9-17.64-5.3 0-9.02 4.6-9.02 10.48 0 8.03 6.99 17.4 14.84 17.4 5.41 0 9.08-4.6 9.08-10.24z"/>
			<path class="s7" d="m575.31 253.97c-2.79 3.08-5.36 7.63-6.64 11.81-0.17 0.47-0.64 0.18-0.52-0.12 0.76-2.21 1.86-4.77 3.14-7.04 0.81-4.13-0.93-9.55-5.94-9.55-5.88 0-7.1 4.71-7.1 10.3v3.78h6.87c0.47 0 0.47 0.52-0.06 0.52h-6.81v22.47c0 4.54 0.11 6.11 5.47 6.17 0.41 0 0.41 0.41 0 0.41-3.67 0-4.31-0.18-5.82-0.18h-3.9c-1.28 0-1.81 0.18-4.83 0.18-0.35 0-0.35-0.41 0-0.41 4.43-0.06 4.54-1.63 4.54-6.17v-22.47h-4.13c-0.35 0-0.35-0.52 0.06-0.52h4.07c0-11.64 7.34-14.61 11.64-14.61 5.06 0 9.25 2.56 9.95 5.41z"/>
		</g>
		<g>
			<path class="s7" d="m617.44 279.02c-2.34 6.63-5.54 13.72-13.15 13.72-5.38 0-9.78-3.32-9.78-9.21v-19.72h-4.34c-0.29 0-0.29-0.46 0-0.51 4.68-1.54 7.6-4.34 8.63-9.49 0.06-0.23 0.29-0.17 0.29 0v9.49h12.58c0.4 0 0.51 0.51 0 0.51h-12.63v18.06c0 5.09 2.06 9.83 6.69 9.83 5.55 0 8.69-5.66 11.21-12.86 0.17-0.4 0.69-0.17 0.51 0.17z"/>
			<path class="s7" d="m650.48 292.34c-2.97 0-3.49-0.17-4.75-0.17h-3.94c-1.26 0-1.77 0.17-4.74 0.17-0.34 0-0.34-0.4 0-0.4 4.34-0.06 4.4-1.6 3.71-6l-1.77-11.15c-1.31-8.17-3.09-10.4-6.06-10.4-5.54 0-10.18 9.66-11.55 23.55 0.11 2.86 0.8 3.94 4.4 4 0.34 0 0.34 0.4 0 0.4-2.97 0-3.49-0.17-4.74-0.17h-3.89c-1.26 0-1.77 0.17-4.74 0.17-0.34 0-0.34-0.4 0-0.4 4.34-0.06 4.46-1.6 4.46-6.06v-28.87c0-3.03-0.74-5.09-4.35-4.8-0.29 0.06-0.29-0.29 0-0.34 2.23-0.63 6.4-2.17 8.46-3.26 0.11-0.11 0.34 0 0.34 0.23v8.17l0.06 11.78-0.97 19.95h0.29c2-18.64 7.89-25.72 13.78-25.72 5.89 0 7.89 4.17 9.2 12.63l1.6 10.29c0.69 4.4 0.86 5.94 5.2 6 0.34 0 0.34 0.4 0 0.4z"/>
			<path class="s7" d="m682.82 278.84c-3.03 8.23-8.8 13.89-17.09 13.89-8.29 0-14.46-6.23-14.46-13.95 0-8.52 5.32-16.01 14.98-16.01 6 0 11.38 2.57 11.38 6.29 0 6.29-9.26 6.23-15.43 7.66-3.26 0.8-5.72 2-5.37 4.86 1.6 4.57 5.43 8.75 12.29 8.75 6.34 0 10.92-5.2 13.26-11.66 0.23-0.4 0.63-0.23 0.46 0.17zm-26.92-2.63c0 1.26 0.17 2.63 0.51 4 0.46-2.34 2.92-3.32 5.72-4 4.8-1.14 10.75-1.49 10.69-7.03-0.06-2.97-1.6-5.89-6.57-5.89-5.72 0-10.35 4.29-10.35 12.92z"/>
		</g>
	</g>
</svg>